<svg id="Layer_1" data-name="Layer 1" xmlns="http://www.w3.org/2000/svg" viewBox="0 0 743 205"><defs><style>.cls-1{fill:none;}.cls-2{fill:#e6e6e6;}</style></defs><title>STAY TUNED</title><path class="cls-1" d="M387.53,77.66c.73,0,1.48.08,2.25.08l2.32,0,2.32,0c.77,0,1.52-.06,2.25-.08,1.46-.07,2.82-.17,4-.3,2.33-.23,3.89-.56,3.89-.56s-1.56-.33-3.89-.56l-1.39-.13,6.08-20.07q1.26-4.38,4.86-15.65l3.61-11.28h-.37L406.87,41l-9,15.73L386.57,76c-1.1.06-2.13.15-3,.24-2.33.23-3.89.56-3.89.56s1.56.32,3.89.55C384.7,77.49,386.07,77.59,387.53,77.66Z"/><path class="cls-1" d="M592.32,178.94q-.28,2.83-.73,5.73t-1.06,6.15l-.77,4h5l-.94-5Q592.91,184.74,592.32,178.94Z"/><path class="cls-1" d="M687.92,54.61a20.61,20.61,0,0,0,12.92-5,24.24,24.24,0,0,0,7.86-12.68q2.77-10.33-9.19-10.52c.59-1.59,1.14-3.1,1.63-4.48,1.76-4.92,2.78-8.27,2.78-8.27s-1.62,3.1-3.81,7.86c-1.1,2.37-2.35,5.15-3.65,8.15-.64,1.5-1.33,3-2,4.63l-2,4.8-1.94,4.83c-.65,1.59-1.23,3.17-1.83,4.69-1.17,3-2.23,5.91-3.1,8.38-1.76,4.93-2.78,8.27-2.78,8.27s1.62-3.1,3.81-7.85C687,56.53,687.48,55.58,687.92,54.61Z"/><path class="cls-1" d="M316.21,52.72a19.66,19.66,0,0,0,14.46-8.6,17.22,17.22,0,0,0,2.68-5.56q3.26-12.17-6.6-12.17h-1.86L313.42,52.87h.06l-9.12,20.55Z"/><path class="cls-1" d="M722.08,176.4h-.53v24.14q3.86,0,5.17-2.34t1.34-9.09q0-7.26-1.28-10A4.72,4.72,0,0,0,722.08,176.4Z"/><path class="cls-2" d="M286.68,116.37,302.34,79q42.8,0,59.45-33.6a71,71,0,0,0,5-13.06q8.17-30.49-32.26-30.49H304.31L255.52,116.37Zm26.73-63.5,11.47-26.48h1.86q9.86,0,6.6,12.17a17.22,17.22,0,0,1-2.68,5.56,19.66,19.66,0,0,1-14.46,8.6L304.36,73.41l9.12-20.55Z"/><path class="cls-2" d="M362.64,116.37l8.13-14-1.76-.1c-3.78-.23-6.3-.55-6.3-.55s2.52-.32,6.3-.55c1.89-.13,4.1-.23,6.46-.3,1.18,0,2.4-.08,3.64-.09l3.76,0,3.76,0c1.24,0,2.46.06,3.65.08,2.36.07,4.57.17,6.46.3,3.78.23,6.3.56,6.3.56s-2.52.33-6.3.56c-1.46.1-3.11.18-4.88.25l-3.71,13.84H420.5L444.66,1.83H407L330.6,116.37Zm20.89-40.11c.91-.1,1.94-.18,3-.24l11.27-19.28,9-15.73,6.59-11.87h.37l-3.61,11.28q-3.6,11.28-4.86,15.65l-6.08,20.07,1.39.13c2.33.23,3.89.56,3.89.56s-1.56.33-3.89.56c-1.17.12-2.53.23-4,.3-.73,0-1.49.08-2.25.08l-2.32,0-2.32,0c-.77,0-1.52-.06-2.25-.08-1.46-.07-2.82-.17-4-.3-2.33-.23-3.89-.55-3.89-.55S381.2,76.48,383.54,76.25Z"/><path class="cls-2" d="M471.42,116.37l13-23.38q14.66-26.1,15-26.7,5.06-9.36,9.31-17.67l13.63-27.94L503.08,71.19l-10.92,45.18h30l54.41-86.79L593.65,1.46H563.53q-5.39,9.87-15.5,27.67L533.82,54.2q-3.35,5.92-5.25,9.64L512.94,95.79l14.86-38,15-56H516L501.89,25.27q-13.06,21.59-15.51,26l-6,10.76-5.69,11.28.06-.22-9.87,19.6,14.73-36.49L495.26,1.83H464.4L441.13,116.37Z"/><polygon class="cls-2" points="616.52 42.39 629.43 45 586.58 44.78 569.69 71.86 602.75 71.86 595.98 86.85 609.55 89.28 594.88 89.29 559.23 89.29 541.71 116.37 612.26 116.37 663.78 1.83 613.22 1.83 596.12 28.76 622.6 28.76 616.52 42.39"/><path class="cls-2" d="M660.86,116.37,680.8,68.68h.3L678,116.37h33.57l-3-47.7a42.82,42.82,0,0,0,15.12-8.53,57,57,0,0,0,17.86-29q7.85-29.3-30-29.3H678.78L630,116.37ZM685.61,57c.87-2.46,1.93-5.33,3.1-8.38.59-1.52,1.18-3.11,1.83-4.69l1.94-4.83,2-4.8c.65-1.58,1.34-3.13,2-4.63,1.3-3,2.55-5.78,3.65-8.15,2.19-4.75,3.81-7.86,3.81-7.86s-1,3.35-2.78,8.27c-.48,1.38-1,2.89-1.63,4.48q11.95.2,9.19,10.52a24.24,24.24,0,0,1-7.86,12.68,20.61,20.61,0,0,1-12.92,5c-.44,1-.87,1.92-1.28,2.79-2.19,4.75-3.81,7.85-3.81,7.85S683.85,61.91,685.61,57Z"/><polygon class="cls-2" points="113.56 114.6 162 0 155.81 0 107.38 114.6 113.56 114.6"/><polygon class="cls-2" points="190.42 114.6 238.85 0 229.77 0 181.34 114.6 190.42 114.6"/><polygon class="cls-2" points="205.79 114.6 254.22 0 244.57 0 196.13 114.6 205.79 114.6"/><polygon class="cls-2" points="67.45 114.6 115.88 0 111.44 0 63 114.6 67.45 114.6"/><polygon class="cls-2" points="128.93 114.6 177.37 0 170.61 0 122.17 114.6 128.93 114.6"/><polygon class="cls-2" points="159.68 114.6 208.11 0 200.19 0 151.75 114.6 159.68 114.6"/><polygon class="cls-2" points="175.05 114.6 223.48 0 214.98 0 166.55 114.6 175.05 114.6"/><polygon class="cls-2" points="144.3 114.6 192.74 0 185.4 0 136.96 114.6 144.3 114.6"/><polygon class="cls-2" points="52.08 114.6 100.51 0 96.65 0 48.21 114.6 52.08 114.6"/><polygon class="cls-2" points="236.53 114.6 284.97 0 274.15 0 225.72 114.6 236.53 114.6"/><polygon class="cls-2" points="36.7 114.6 85.14 0 81.86 0 33.42 114.6 36.7 114.6"/><polygon class="cls-2" points="82.82 114.6 131.25 0 126.23 0 77.8 114.6 82.82 114.6"/><polygon class="cls-2" points="98.19 114.6 146.62 0 141.02 0 92.59 114.6 98.19 114.6"/><polygon class="cls-2" points="221.16 114.6 269.6 0 259.36 0 210.92 114.6 221.16 114.6"/><polygon class="cls-2" points="54.4 0 52.27 0 3.84 114.6 5.96 114.6 54.4 0"/><polygon class="cls-2" points="21.33 114.6 69.77 0 67.06 0 18.63 114.6 21.33 114.6"/><rect class="cls-2" x="0.1" y="143.85" width="742.79" height="6.71"/><path class="cls-2" d="M558.05,187.26q-1.4-1.4-2.29-2.4a12.48,12.48,0,0,1-1.27-1.63,5.15,5.15,0,0,1-.75-2.83,4.17,4.17,0,0,1,1.06-3,3.49,3.49,0,0,1,2.73-1.18,6.2,6.2,0,0,1,3.48,1.38v-4.13a9.16,9.16,0,0,0-4.31-1.08,6.59,6.59,0,0,0-5.19,2.18,8.48,8.48,0,0,0-1.91,5.84,9.35,9.35,0,0,0,1,4.52,13.19,13.19,0,0,0,1.57,2.14q1.06,1.22,2.66,2.81,1,1,1.73,1.88a12.59,12.59,0,0,1,1.08,1.5,6.25,6.25,0,0,1,.75,3.07,4.66,4.66,0,0,1-1,3.12,3.36,3.36,0,0,1-2.71,1.15,7.2,7.2,0,0,1-4.11-1.65v4.19a7.3,7.3,0,0,0,4.62,1.49,6.75,6.75,0,0,0,5.27-2.3,8.8,8.8,0,0,0,2.05-6,10,10,0,0,0-.94-4.54A18.81,18.81,0,0,0,558.05,187.26Z"/><polygon class="cls-2" points="567.41 176.54 572.29 176.54 572.29 204.24 576.44 204.24 576.44 176.54 581.18 176.54 581.18 172.84 567.41 172.84 567.41 176.54"/><path class="cls-2" d="M590.73,172.84l-6.83,31.41H588l1.2-6.12h6.22l1.18,6.12h4.19L594,172.84Zm-1,22,.77-4q.61-3.25,1.06-6.15t.73-5.73q.59,5.8,1.53,10.9l.94,5Z"/><path class="cls-2" d="M612.7,179.94l-.24,1.1-.65,2.81q-.24,1-.61,3.52a48.92,48.92,0,0,0-1.59-6.22q-.14-.43-.24-.79t-.2-.67l-2.07-6.83h-4.47l6.55,17.9v13.51h4.23V190.74l5.47-17.9h-4.41Z"/><polygon class="cls-2" points="633.99 176.54 638.87 176.54 638.87 204.24 643.02 204.24 643.02 176.54 647.75 176.54 647.75 172.84 633.99 172.84 633.99 176.54"/><path class="cls-2" d="M663.72,195.64a8.82,8.82,0,0,1-.61,4,2.64,2.64,0,0,1-2.44,1,2.59,2.59,0,0,1-2.48-1.12,10.89,10.89,0,0,1-.61-4.52V172.84h-4.15V195q0,5.15,1.2,7,1.73,2.64,6,2.64,3.84,0,5.72-2.05,1.57-1.81,1.57-6.94v-22.8h-4.15Z"/><path class="cls-2" d="M686.44,184.55q0,2.6.24,5.55t.75,6.59a114.47,114.47,0,0,0-3.23-11.33L680,172.84H676v31.41h4.19L680,190.55q0-.59,0-1.06c0-.31,0-.58,0-.79l-.24-3.88-.22-3.19q0-.26-.06-.64l-.1-.91.21.94q.09.41.13.69.49,2.28,1.07,4.35t1.23,4l4.73,14.14h4V172.84h-4.23Z"/><polygon class="cls-2" points="698.86 204.24 710.11 204.24 710.11 200.66 703.09 200.66 703.09 189.94 709.32 189.94 709.32 186.36 703.09 186.36 703.09 176.42 710.11 176.42 710.11 172.84 698.86 172.84 698.86 204.24"/><path class="cls-2" d="M729.22,175.18a6.34,6.34,0,0,0-2.68-1.81,13.1,13.1,0,0,0-4-.53h-5.21v31.41h3.42q5.94,0,8.24-2.05a9.27,9.27,0,0,0,2.68-4.78,35.26,35.26,0,0,0,.83-8.46,38.23,38.23,0,0,0-.75-8.68A11.38,11.38,0,0,0,729.22,175.18Zm-2.5,23q-1.3,2.34-5.17,2.34V176.4h.53a4.72,4.72,0,0,1,4.7,2.73q1.28,2.73,1.28,10Q728.06,195.86,726.72,198.2Z"/></svg>