<svg id="Layer_1" data-name="Layer 1" xmlns="http://www.w3.org/2000/svg" viewBox="0 0 238.34 37.53"><defs><style>.cls-1{fill:none;}.cls-2{fill:#fff;}</style></defs><title>ICONOS</title><path class="cls-1" d="M130,13.22l-2.91,5.07-3.63,6.22-1,.08c-.75.08-1.26.18-1.26.18s.5.11,1.26.18c.38,0,.82.07,1.29.1l.73,0H126l.73,0c.47,0,.91-.06,1.29-.1a12.67,12.67,0,0,0,1.26-.18s-.5-.11-1.26-.18l-.45,0,2-6.47q.4-1.41,1.57-5l1.17-3.64h-.12Z"/><path class="cls-1" d="M224.35,8.51l.53-1.44c.57-1.59.9-2.67.9-2.67s-.52,1-1.23,2.53c-.35.76-.76,1.66-1.18,2.63-.21.49-.43,1-.64,1.49l-.64,1.55-.62,1.56c-.21.51-.4,1-.59,1.51-.38,1-.72,1.91-1,2.7C219.3,20,219,21,219,21s.52-1,1.23-2.53l.41-.9A6.66,6.66,0,0,0,224.78,16a7.82,7.82,0,0,0,2.53-4.09C227.91,9.68,226.91,8.56,224.35,8.51Z"/><path class="cls-1" d="M104.13,8.51h-.6L99.84,17h0l-2.94,6.63L100.74,17a6.34,6.34,0,0,0,4.66-2.77,5.57,5.57,0,0,0,.86-1.79Q107.32,8.51,104.13,8.51Z"/><path class="cls-2" d="M115.43,14.63A22.84,22.84,0,0,0,117,10.42Q119.67.59,106.64.59H96.9L81.17,37.53h10l5-12.06Q110.07,25.47,115.43,14.63Zm-9.17-2.2a5.57,5.57,0,0,1-.86,1.79A6.34,6.34,0,0,1,100.74,17l-3.82,6.67L99.86,17h0l3.7-8.54h.6Q107.31,8.51,106.26,12.43Z"/><path class="cls-2" d="M130,.59,105.38,37.53h10.34L118.33,33l-.57,0c-1.22-.07-2-.18-2-.18s.81-.1,2-.18c.61,0,1.32-.07,2.09-.09l1.17,0h2.43l1.18,0c.76,0,1.47.06,2.08.1,1.22.08,2,.18,2,.18s-.81.1-2,.18l-1.57.08-1.2,4.46h10.43L142.16.59Zm1,12.44q-1.16,3.64-1.57,5l-2,6.47.45,0c.75.07,1.26.18,1.26.18A12.67,12.67,0,0,1,128,25c-.38,0-.82.07-1.29.1l-.73,0h-1.5l-.73,0c-.47,0-.91-.06-1.29-.1-.75-.07-1.26-.18-1.26-.18s.5-.1,1.26-.18l1-.08,3.63-6.22L130,13.22l2.13-3.83h.12Z"/><path class="cls-2" d="M190.21.47h-9.71q-1.73,3.18-5,8.92l-4.58,8.08q-1.08,1.91-1.69,3.11l-5,10.3L169,18.64,173.81.59h-8.64l-4.56,7.56q-4.21,7-5,8.4L153.68,20l-1.83,3.64,0-.07-3.18,6.32,4.75-11.77,5-17.55h-10L141,37.53h9.77L155,30q4.73-8.42,4.83-8.61,1.63-3,3-5.7l4.4-9L161,23l-3.52,14.57h9.66l17.55-28Z"/><polygon class="cls-2" points="196.52 0.59 191.01 9.27 199.54 9.27 197.58 13.67 201.75 14.51 187.93 14.44 182.48 23.17 193.14 23.17 190.96 28.01 195.34 28.79 190.6 28.8 179.11 28.8 173.46 37.53 196.21 37.53 212.82 0.59 196.52 0.59"/><path class="cls-2" d="M228.24.59H217.66L201.93,37.53h10l6.43-15.38h.1l-1,15.38h10.82l-1-15.38a13.8,13.8,0,0,0,4.88-2.75A18.39,18.39,0,0,0,237.91,10Q240.44.59,228.24.59Zm-.93,11.31A7.82,7.82,0,0,1,224.78,16a6.66,6.66,0,0,1-4.17,1.62l-.41.9C219.49,20,219,21,219,21s.33-1.08.89-2.67c.28-.8.62-1.72,1-2.7.19-.49.38-1,.59-1.51l.62-1.56.64-1.55c.21-.51.43-1,.64-1.49.42-1,.82-1.86,1.18-2.63.71-1.53,1.23-2.53,1.23-2.53s-.33,1.08-.9,2.67l-.53,1.44C226.91,8.56,227.91,9.68,227.31,11.9Z"/><polygon class="cls-2" points="63.32 0 47.7 36.96 50.26 36.96 65.88 0 63.32 0"/><polygon class="cls-2" points="72.86 0 57.24 36.96 60.17 36.96 75.79 0 72.86 0"/><polygon class="cls-2" points="87.17 0 71.56 36.96 75.04 36.96 90.66 0 87.17 0"/><polygon class="cls-2" points="82.4 0 66.78 36.96 70.09 36.96 85.7 0 82.4 0"/><polygon class="cls-2" points="77.63 0 62.01 36.96 65.13 36.96 80.75 0 77.63 0"/><polygon class="cls-2" points="68.09 0 52.47 36.96 55.22 36.96 70.83 0 68.09 0"/><polygon class="cls-2" points="20.39 0 4.77 36.96 5.64 36.96 21.26 0 20.39 0"/><polygon class="cls-2" points="34.7 0 19.08 36.96 20.51 36.96 36.13 0 34.7 0"/><polygon class="cls-2" points="44.24 0 28.62 36.96 30.43 36.96 46.05 0 44.24 0"/><polygon class="cls-2" points="39.47 0 23.85 36.96 25.47 36.96 41.09 0 39.47 0"/><polygon class="cls-2" points="25.16 0 9.54 36.96 10.6 36.96 26.22 0 25.16 0"/><polygon class="cls-2" points="29.93 0 14.31 36.96 15.56 36.96 31.18 0 29.93 0"/><polygon class="cls-2" points="15.62 0 0 36.96 0.69 36.96 16.3 0 15.62 0"/><polygon class="cls-2" points="49.01 0 33.39 36.96 35.38 36.96 51.01 0 49.01 0"/><polygon class="cls-2" points="53.78 0 38.16 36.96 40.34 36.96 55.96 0 53.78 0"/><polygon class="cls-2" points="58.55 0 42.93 36.96 45.3 36.96 60.92 0 58.55 0"/></svg>